<svg viewBox="0 0 32 32" width="32" height="32" xmlns="http://www.w3.org/2000/svg">
	<title>Home</title>
	<path d="m16 6.4c2.7 2.7 5.3 5.3 8 8 0 4.2 0 8.4 0 12.6 -1.3 0-2.7 0-4 0 0-3.3 0-6.7 0-10 -2.7 0-5.3 0-8 0 0 3.3 0 6.7 0 10 -1.3 0-2.7 0-4 0 0-4.2 0-8.4 0-12.6 2.7-2.7 5.3-5.3 8-8Zm0-2.8C11.7 7.9 7.3 12.3 3 16.6 3.5 17.1 3.9 17.5 4.4 18 4.9 17.5 5.5 16.9 6 16.4 6 20.6 6 24.8 6 29c2.7 0 5.3 0 8 0 0-3.3 0-6.7 0-10 1.3 0 2.7 0 4 0 0 3.3 0 6.7 0 10 2.7 0 5.3 0 8 0 0-4.2 0-8.4 0-12.6C26.5 16.9 27.1 17.5 27.6 18 28.1 17.5 28.5 17.1 29 16.6 24.7 12.3 20.3 7.9 16 3.6Z"/>
</svg>