<svg viewBox="0 0 32 32" width="32" height="32" xmlns="http://www.w3.org/2000/svg">
	<title>Mute</title>
	<path d="m17 5c-2 2-4 4-6 6 -1.7 0-3.3 0-5 0 0 3.3 0 6.7 0 10 1.7 0 3.3 0 5 0 2 2 4 4 6 6C17 19.7 17 12.3 17 5 16.3 6.6 15.6 8.2 15 9.9 15 14 15 18.1 15 22.2 13.9 21.1 12.9 20.1 11.8 19 10.5 19 9.3 19 8 19c0-2 0-4 0-6 1.3 0 2.5 0 3.8 0 1.1-1.1 2.2-2.1 3.2-3.3C15.7 8.1 16.3 6.6 17 5Zm7.7 11c0.9-0.9 1.9-1.9 2.8-2.8 -0.5-0.5-0.9-0.9-1.4-1.4 -0.9 0.9-1.9 1.9-2.8 2.8C22.3 13.6 21.4 12.7 20.4 11.8 19.9 12.2 19.5 12.7 19 13.2 19.9 14.1 20.9 15.1 21.8 16 20.9 16.9 19.9 17.9 19 18.8c0.5 0.5 0.9 0.9 1.4 1.4 0.9-0.9 1.9-1.9 2.8-2.8 0.9 0.9 1.9 1.9 2.8 2.8 0.5-0.5 0.9-0.9 1.4-1.4C26.5 17.9 25.6 16.9 24.7 16Z"/>
</svg>