<svg viewBox="0 0 32 32" width="32" height="32" xmlns="http://www.w3.org/2000/svg">
	<title>Shutdown</title>
	<path d="m19.2 3.4c-0.2 0.6-0.3 1.3-0.5 1.9 5.3 1.2 9.1 6.8 8.2 12.2 -0.7 5-5.1 9.2-10.2 9.4C11.9 27.3 7 24.2 5.6 19.5 4 15 5.7 9.6 9.8 7 10.8 6.2 12.1 5.7 13.4 5.3 13.2 4.7 13 4.1 12.9 3.4 6.8 4.8 2.3 11.1 3.1 17.4 3.6 23.1 8.4 28.2 14.2 28.9 19.4 29.6 24.8 27 27.3 22.4 29.8 18.1 29.6 12.3 26.5 8.3 24.7 5.9 22.1 4.1 19.2 3.4ZM15 3c0.7 0 1.3 0 2 0 0 4.3 0 8.7 0 13 -0.7 0-1.3 0-2 0 0-4.3 0-8.7 0-13Z"/>
</svg>