<svg viewBox="0 0 32 32" width="32" height="32" xmlns="http://www.w3.org/2000/svg">
	<title>VOD</title>
	<path d="m26.7 19.7c0.1 1.7-1.3 3.2-3 3.2 -0.8 0.1-1.6 0-2.4 0 0-2.1 0-4.3 0-6.4 1.6 0 3.6-0.3 4.7 1.1 0.5 0.6 0.7 1.3 0.7 2.1Zm-0.9 0c0.2-1.6-1.4-2.7-2.9-2.5 -0.5-0.1-1-0.1-0.8 0.6 0 1.4 0 2.9 0 4.3 1.2 0 2.8 0.1 3.4-1.2 0.2-0.4 0.2-0.8 0.2-1.2ZM19.2 17.3c1.1 1.4 1.1 3.6 0 4.9 -1.4 1.5-4.4 1-4.9-1 -0.5-1.7-0.1-4.1 1.8-4.6 1.1-0.3 2.3-0.1 3.1 0.7Zm-0.1 2.5c0.2-1.4-1-3-2.5-2.6 -1.6 0.3-1.9 2.3-1.5 3.7 0.3 1.7 3 2 3.7 0.4 0.2-0.5 0.3-1 0.3-1.6Zm-5.7-3.2c-0.8 2.1-1.6 4.3-2.3 6.4 -0.4-0.1-1.1 0.2-1.2-0.2 -0.8-2.1-1.5-4.1-2.3-6.2 0.4 0 1.1-0.2 1.1 0.4 0.6 1.7 1.2 3.5 1.9 5.2 0.7-1.9 1.3-3.8 2-5.6 0.3 0 0.6 0 0.9 0ZM2.5 4.7C2.7 7.2 3 9.7 3.2 12.2 12.4 11.5 21.6 10.8 30.8 10.1 30.6 7.6 30.3 5.1 30.1 2.6 20.9 3.3 11.7 4 2.5 4.7ZM4.8 6.4C5.8 6.3 6.9 6.3 8 6.2 8.4 6.8 8.8 7.4 9.2 8 8.9 8.6 8.6 9.3 8.3 9.9 7.3 10 6.2 10.1 5.1 10.2 5 8.9 4.9 7.7 4.8 6.4ZM10.1 6c0.9-0.1 1.8-0.1 2.7-0.2 0.4 0.6 0.8 1.2 1.2 1.8 -0.3 0.6-0.6 1.3-0.9 1.9 -0.9 0.1-1.8 0.1-2.7 0.2C10.8 9.1 11 8.4 11.3 7.8 10.9 7.2 10.5 6.6 10.1 6Zm4.8-0.4c0.9-0.1 1.8-0.1 2.7-0.2 0.4 0.6 0.8 1.2 1.2 1.8C18.5 7.9 18.2 8.5 17.9 9.2 17 9.2 16.1 9.3 15.2 9.4 15.5 8.7 15.8 8.1 16.1 7.4 15.7 6.8 15.3 6.2 14.9 5.6Zm4.8-0.4c0.9-0.1 1.8-0.1 2.7-0.2 0.4 0.6 0.8 1.2 1.2 1.8 -0.3 0.6-0.6 1.3-0.9 1.9 -0.9 0.1-1.8 0.1-2.7 0.2 0.3-0.6 0.6-1.3 0.9-1.9C20.5 6.5 20.1 5.9 19.7 5.3Zm4.8-0.4c1.2-0.1 2.5-0.2 3.7-0.3 0.1 1.2 0.2 2.5 0.4 3.7C27.3 8.4 26.1 8.5 24.8 8.6 25.1 8 25.4 7.3 25.7 6.7 25.3 6.1 24.9 5.5 24.4 4.9ZM5.3 25.3c7.8 0 15.7 0 23.5 0 0-3.7 0-7.5 0-11.2 -7.8 0-15.7 0-23.5 0M31 12.2c0 5 0 10 0 15 -9.2 0-18.5 0-27.7 0 0-5 0-10 0-15"/>
</svg>